<svg width="20" height="20" viewBox="0 0 20 20" fill="none" xmlns="http://www.w3.org/2000/svg">
<path d="M16.8538 7.94077C18.5771 7.1684 18.5261 5.90699 18.2151 5.22807C16.1037 1.89032 12.3347 0.537681 9.11773 1.13847C4.3102 1.93218 1.53886 6.22029 1.61512 10.3281C1.68802 14.2552 4.51211 16.8312 5.5446 17.3918C4.31774 15.7893 4.74832 12.8627 5.06418 11.7507C4.95565 11.1516 4.89629 9.94856 5.50708 8.38886C6.24145 6.51358 7.35248 5.49958 9.68394 5.49958C11.6478 5.49958 12.9015 6.72318 13.2779 7.34523C13.7586 7.84079 15.3372 8.62052 16.8538 7.94077Z" fill="url(#paint0_linear_367_1837)"/>
<path d="M16.8537 7.94077C18.577 7.16841 18.526 5.90699 18.215 5.22807C16.1036 1.89032 12.3346 0.537681 9.11761 1.13847C7.71483 1.37006 6.48542 1.89917 5.44952 2.6345C6.2771 2.32088 8.5587 1.85471 11.4947 2.94236C14.3267 3.99145 16.0368 6.62899 16.5165 8.06839C16.6289 8.03337 16.7415 7.99107 16.8537 7.94077Z" fill="url(#paint1_linear_367_1837)"/>
<path d="M16.856 12.0338C18.5792 12.8062 18.5282 14.0676 18.2173 14.7465C16.1059 18.0843 12.3368 19.4369 9.11986 18.8361C5.79687 18.2875 3.39745 16.0491 2.2915 13.452C1.78603 12.2649 1.58296 11.1237 1.62472 9.72941C1.84884 5.6037 4.45058 3.32755 5.45884 2.63101C4.93133 3.56342 3.97542 5.94881 4.02019 8.22389C4.06468 10.4853 4.66356 11.2443 5.05664 11.7425L5.06376 11.7516C5.15627 12.1551 5.25079 12.7106 5.45961 12.9591C6.30943 13.9701 8.49041 14.3416 9.69084 14.3416C11.7213 14.3416 13.0748 13.7793 13.5316 13.0937C13.7559 12.7569 13.8053 12.3674 13.8053 12.2445C14.521 11.8419 15.7063 11.5186 16.856 12.0338Z" fill="url(#paint2_linear_367_1837)"/>
<path d="M16.8537 12.0592C18.577 12.8316 18.526 14.093 18.215 14.7719C16.1036 18.1097 12.3346 19.4623 9.11761 18.8615C7.71483 18.6299 6.48542 18.1008 5.44952 17.3655C6.2771 17.6791 8.5587 18.1453 11.4947 17.0576C14.3267 16.0086 16.0368 13.371 16.5165 11.9316C16.6289 11.9666 16.7415 12.0089 16.8537 12.0592Z" fill="url(#paint3_linear_367_1837)"/>
<path fill-rule="evenodd" clip-rule="evenodd" d="M8.45982 10.0774C8.45982 10.6866 7.95089 11.1435 7.39107 11.1435C6.78036 11.1435 6.32233 10.6866 6.32233 10.0774C6.32233 9.87437 6.37322 9.62055 6.5259 9.46826" fill="url(#paint4_linear_367_1837)"/>
<path fill-rule="evenodd" clip-rule="evenodd" d="M10.4956 10.0774C10.4956 10.6866 11.0046 11.1435 11.5644 11.1435C12.1751 11.1435 12.6331 10.6866 12.6331 10.0774C12.6331 9.87437 12.5822 9.62055 12.4295 9.46826" fill="url(#paint5_linear_367_1837)"/>
<defs>
<linearGradient id="paint0_linear_367_1837" x1="2.68193" y1="12.1161" x2="12.7629" y2="3.84469" gradientUnits="userSpaceOnUse">
<stop stop-color="#0F53FB"/>
<stop offset="1" stop-color="#087AFF"/>
</linearGradient>
<linearGradient id="paint1_linear_367_1837" x1="10.7453" y1="5.79604" x2="12.1191" y2="1.33731" gradientUnits="userSpaceOnUse">
<stop stop-color="#5DD2FF"/>
<stop offset="1" stop-color="#0F53FB"/>
</linearGradient>
<linearGradient id="paint2_linear_367_1837" x1="1.82994" y1="5.75493" x2="13.9247" y2="15.7545" gradientUnits="userSpaceOnUse">
<stop stop-color="#BC55FF"/>
<stop offset="1" stop-color="#5402FF"/>
</linearGradient>
<linearGradient id="paint3_linear_367_1837" x1="13.2403" y1="7.94398" x2="19.3881" y2="15.0669" gradientUnits="userSpaceOnUse">
<stop stop-color="#5402FF"/>
<stop offset="0.995152" stop-color="#BC55FF"/>
</linearGradient>
<linearGradient id="paint4_linear_367_1837" x1="7.37021" y1="9.44566" x2="7.37021" y2="11.1163" gradientUnits="userSpaceOnUse">
<stop stop-color="#5402FF"/>
<stop offset="1" stop-color="#BC55FF"/>
</linearGradient>
<linearGradient id="paint5_linear_367_1837" x1="11.5917" y1="9.43701" x2="11.5917" y2="13.5032" gradientUnits="userSpaceOnUse">
<stop stop-color="#0C68FE"/>
<stop offset="1" stop-color="#00F2FF"/>
</linearGradient>
</defs>
</svg>
