<svg width="70" height="21" viewBox="0 0 70 21" fill="none" xmlns="http://www.w3.org/2000/svg">
<path d="M5.6 9.368L11.336 1.904H17.144L9.968 10.472L17.816 20H11.72L5.6 12.152V20H0.896V1.904H5.6V9.368ZM23.8398 0.079999V20H19.4958V0.079999H23.8398ZM31.1523 7.688V14.624C31.1523 16.144 31.8883 16.904 33.3603 16.904C34.8323 16.904 35.5683 16.144 35.5683 14.624V7.688H39.9123V15.464C39.9123 17.128 39.3603 18.376 38.2563 19.208C37.1683 20.04 35.5363 20.456 33.3603 20.456C31.1843 20.456 29.5443 20.04 28.4403 19.208C27.3523 18.376 26.8083 17.128 26.8083 15.464V7.688H31.1523ZM52.679 13.88C52.679 13.496 52.607 13.136 52.463 12.8C52.319 12.448 52.119 12.144 51.863 11.888C51.607 11.632 51.311 11.432 50.975 11.288C50.639 11.128 50.271 11.048 49.871 11.048C49.487 11.048 49.127 11.12 48.791 11.264C48.455 11.408 48.159 11.608 47.903 11.864C47.663 12.12 47.463 12.424 47.303 12.776C47.159 13.112 47.087 13.472 47.087 13.856C47.087 14.24 47.159 14.6 47.303 14.936C47.447 15.272 47.647 15.568 47.903 15.824C48.159 16.064 48.455 16.264 48.791 16.424C49.143 16.568 49.511 16.64 49.895 16.64C50.279 16.64 50.639 16.568 50.975 16.424C51.311 16.28 51.599 16.08 51.839 15.824C52.095 15.568 52.295 15.272 52.439 14.936C52.599 14.6 52.679 14.248 52.679 13.88ZM47.207 0.079999V8.912C48.231 7.84 49.511 7.304 51.047 7.304C51.959 7.304 52.791 7.48 53.543 7.832C54.311 8.168 54.959 8.632 55.487 9.224C56.031 9.8 56.455 10.488 56.759 11.288C57.063 12.072 57.215 12.912 57.215 13.808C57.215 14.72 57.055 15.576 56.735 16.376C56.431 17.176 55.999 17.872 55.439 18.464C54.879 19.056 54.215 19.528 53.447 19.88C52.695 20.216 51.879 20.384 50.999 20.384C49.399 20.384 48.135 19.8 47.207 18.632V20H42.863V0.079999H47.207ZM67.8511 10.856C67.0511 10.44 66.2671 10.232 65.4991 10.232C65.0991 10.232 64.7711 10.312 64.5151 10.472C64.2751 10.632 64.1551 10.848 64.1551 11.12C64.1551 11.264 64.1711 11.384 64.2031 11.48C64.2511 11.56 64.3391 11.64 64.4671 11.72C64.6111 11.8 64.8111 11.872 65.0671 11.936C65.3391 12 65.6911 12.08 66.1231 12.176C67.3231 12.416 68.2191 12.848 68.8111 13.472C69.4031 14.08 69.6991 14.864 69.6991 15.824C69.6991 16.544 69.5551 17.192 69.2671 17.768C68.9791 18.344 68.5791 18.832 68.0671 19.232C67.5551 19.616 66.9391 19.912 66.2191 20.12C65.4991 20.344 64.7071 20.456 63.8431 20.456C62.1791 20.456 60.5391 19.984 58.9231 19.04L60.5071 15.968C61.7231 16.8 62.8751 17.216 63.9631 17.216C64.3631 17.216 64.6911 17.128 64.9471 16.952C65.2031 16.776 65.3311 16.552 65.3311 16.28C65.3311 16.12 65.3071 15.992 65.2591 15.896C65.2271 15.784 65.1471 15.688 65.0191 15.608C64.8911 15.512 64.6991 15.432 64.4431 15.368C64.2031 15.288 63.8831 15.208 63.4831 15.128C62.1391 14.856 61.1951 14.456 60.6511 13.928C60.1231 13.384 59.8591 12.64 59.8591 11.696C59.8591 11.008 59.9871 10.392 60.2431 9.848C60.4991 9.288 60.8671 8.816 61.3471 8.432C61.8271 8.048 62.4031 7.752 63.0751 7.544C63.7631 7.336 64.5231 7.232 65.3551 7.232C66.7151 7.232 68.0351 7.496 69.3151 8.024L67.8511 10.856Z" fill="#C7FEA2"/>
</svg>
