<svg xmlns="http://www.w3.org/2000/svg" version="1.1" xmlns:xlink="http://www.w3.org/1999/xlink" xmlns:svgjs="http://svgjs.com/svgjs" width="1000" height="1000"><style>
    #light-icon {
      display: inline;
    }
    #dark-icon {
      display: none;
    }

    @media (prefers-color-scheme: dark) {
      #light-icon {
        display: none;
      }
      #dark-icon {
        display: inline;
      }
    }
  </style><g id="light-icon"><svg xmlns="http://www.w3.org/2000/svg" version="1.1" xmlns:xlink="http://www.w3.org/1999/xlink" xmlns:svgjs="http://svgjs.com/svgjs" width="1000" height="1000"><g transform="matrix(62.5,0,0,62.5,-0.023878276348114014,0)"><svg xmlns="http://www.w3.org/2000/svg" version="1.1" xmlns:xlink="http://www.w3.org/1999/xlink" xmlns:svgjs="http://svgjs.com/svgjs" width="16" height="16"><svg width="16" height="16" viewBox="0 0 16 16" fill="none" xmlns="http://www.w3.org/2000/svg">
<path d="M14.24 6.6C15.0588 5.98565 15.6244 5.0928 15.83 4.09C15.8297 3.90423 15.7815 3.72169 15.69 3.56C15.26 2.81 14.05 2.83 12.59 3.21L12.41 2.84C12.2871 2.58907 12.0965 2.37747 11.8597 2.22905C11.623 2.08064 11.3495 2.0013 11.07 2H4.93003C4.6506 2.0013 4.37709 2.08064 4.14033 2.22905C3.90357 2.37747 3.71298 2.58907 3.59003 2.84L1.39003 7.35C1.29109 7.5524 1.23965 7.77471 1.23965 8C1.23965 8.22529 1.29109 8.4476 1.39003 8.65L1.76003 9.4C0.58003 10.53 -0.14997 11.65 0.31003 12.4C0.469419 12.6175 0.684499 12.788 0.932632 12.8936C1.18077 12.9992 1.45277 13.036 1.72003 13C2.28851 12.9819 2.85267 12.8946 3.40003 12.74L3.59003 13.12C3.70728 13.3784 3.89542 13.5983 4.13261 13.754C4.3698 13.9098 4.64631 13.9951 4.93003 14H11.07C11.3495 13.9987 11.623 13.9194 11.8597 13.7709C12.0965 13.6225 12.2871 13.4109 12.41 13.16L14.61 8.65C14.709 8.4476 14.7604 8.22529 14.7604 8C14.7604 7.77471 14.709 7.5524 14.61 7.35L14.24 6.6ZM14.33 3.93C14.61 3.93 14.77 3.93 14.82 4.06C14.87 4.19 14.61 4.83 13.82 5.66L13 4.13C13.4336 4.00976 13.8802 3.9426 14.33 3.93ZM8.00003 3.5C8.76268 3.49678 9.51336 3.68961 10.18 4.06C10.5205 4.24989 10.8334 4.4854 11.11 4.76C11.7292 5.3437 12.1667 6.09372 12.37 6.92C11.2332 7.81692 10.0297 8.62593 8.77003 9.34C7.52726 10.0718 6.23011 10.707 4.89003 11.24C4.27087 10.6563 3.83336 9.90628 3.63003 9.08C3.54136 8.72692 3.49768 8.36404 3.50003 8V7.93C3.51582 6.74787 3.99721 5.61968 4.8397 4.79029C5.6822 3.9609 6.8178 3.49726 8.00003 3.5ZM1.18003 11.94C1.07003 11.76 1.39003 11.17 2.18003 10.34L3.00003 11.87C1.90003 12.14 1.28003 12.12 1.18003 11.94ZM8.00003 12.5C7.23317 12.5014 6.47889 12.3051 5.81003 11.93C6.99898 11.4313 8.15469 10.8568 9.27003 10.21C10.3853 9.55675 11.4636 8.84233 12.5 8.07C12.4842 9.25213 12.0028 10.3803 11.1604 11.2097C10.3179 12.0391 9.18226 12.5027 8.00003 12.5Z" fill="#453B33"></path>
</svg></svg></g></svg></g><g id="dark-icon"><svg xmlns="http://www.w3.org/2000/svg" version="1.1" xmlns:xlink="http://www.w3.org/1999/xlink" xmlns:svgjs="http://svgjs.com/svgjs" width="1000" height="1000"><g transform="matrix(62.5,0,0,62.5,-0.023878276348114014,0)"><svg xmlns="http://www.w3.org/2000/svg" version="1.1" xmlns:xlink="http://www.w3.org/1999/xlink" xmlns:svgjs="http://svgjs.com/svgjs" width="16" height="16"><svg width="16" height="16" viewBox="0 0 16 16" fill="none" xmlns="http://www.w3.org/2000/svg">
<path d="M14.24 6.6C15.0588 5.98565 15.6244 5.0928 15.83 4.09C15.8297 3.90423 15.7815 3.72169 15.69 3.56C15.26 2.81 14.05 2.83 12.59 3.21L12.41 2.84C12.2871 2.58907 12.0965 2.37747 11.8597 2.22905C11.623 2.08064 11.3495 2.0013 11.07 2H4.93003C4.6506 2.0013 4.37709 2.08064 4.14033 2.22905C3.90357 2.37747 3.71298 2.58907 3.59003 2.84L1.39003 7.35C1.29109 7.5524 1.23965 7.77471 1.23965 8C1.23965 8.22529 1.29109 8.4476 1.39003 8.65L1.76003 9.4C0.58003 10.53 -0.14997 11.65 0.31003 12.4C0.469419 12.6175 0.684499 12.788 0.932632 12.8936C1.18077 12.9992 1.45277 13.036 1.72003 13C2.28851 12.9819 2.85267 12.8946 3.40003 12.74L3.59003 13.12C3.70728 13.3784 3.89542 13.5983 4.13261 13.754C4.3698 13.9098 4.64631 13.9951 4.93003 14H11.07C11.3495 13.9987 11.623 13.9194 11.8597 13.7709C12.0965 13.6225 12.2871 13.4109 12.41 13.16L14.61 8.65C14.709 8.4476 14.7604 8.22529 14.7604 8C14.7604 7.77471 14.709 7.5524 14.61 7.35L14.24 6.6ZM14.33 3.93C14.61 3.93 14.77 3.93 14.82 4.06C14.87 4.19 14.61 4.83 13.82 5.66L13 4.13C13.4336 4.00976 13.8802 3.9426 14.33 3.93ZM8.00003 3.5C8.76268 3.49678 9.51336 3.68961 10.18 4.06C10.5205 4.24989 10.8334 4.4854 11.11 4.76C11.7292 5.3437 12.1667 6.09372 12.37 6.92C11.2332 7.81692 10.0297 8.62593 8.77003 9.34C7.52726 10.0718 6.23011 10.707 4.89003 11.24C4.27087 10.6563 3.83336 9.90628 3.63003 9.08C3.54136 8.72692 3.49768 8.36404 3.50003 8V7.93C3.51582 6.74787 3.99721 5.61968 4.8397 4.79029C5.6822 3.9609 6.8178 3.49726 8.00003 3.5ZM1.18003 11.94C1.07003 11.76 1.39003 11.17 2.18003 10.34L3.00003 11.87C1.90003 12.14 1.28003 12.12 1.18003 11.94ZM8.00003 12.5C7.23317 12.5014 6.47889 12.3051 5.81003 11.93C6.99898 11.4313 8.15469 10.8568 9.27003 10.21C10.3853 9.55675 11.4636 8.84233 12.5 8.07C12.4842 9.25213 12.0028 10.3803 11.1604 11.2097C10.3179 12.0391 9.18226 12.5027 8.00003 12.5Z" fill="white"></path>
</svg></svg></g></svg></g></svg>