<?xml version="1.0" encoding="utf-8"?>
<!-- Generator: Adobe Illustrator 25.2.3, SVG Export Plug-In . SVG Version: 6.00 Build 0)  -->
<svg version="1.1" id="Layer_1" xmlns="http://www.w3.org/2000/svg" xmlns:xlink="http://www.w3.org/1999/xlink" x="0px" y="0px"
	 viewBox="0 0 300 300" style="enable-background:new 0 0 300 300;" xml:space="preserve">
<style type="text/css">
	.st0{fill:#EAD55C;}
	.st1{opacity:0.1;}
	.st2{fill:#232323;}
	.st3{fill:#C6C5C6;}
	.st4{fill:#F0F0F0;}
	.st5{fill:#DCDCDC;}
	.st6{fill:#3A3A3A;}
</style>
<g>
	<ellipse class="st0" cx="150" cy="150" rx="150" ry="149.99"/>
	<path class="st1" d="M263.01,248.65c-30.23,34.57-75.9,54.86-125.19,50.85C61.47,293.28,3.14,230.91,0.12,156.27
		c48.29-3.81,56.36-12.15,110.15,6.19S173.21,238,263.01,248.65z"/>
	<path class="st1" d="M239.69,270.23c-28.24,21.08-63.98,32.36-101.87,29.27c-65.79-5.36-118.2-52.41-133.37-113.08
		c41.49-5.32,55.53-71.07,109.31-52.73S121.4,234.41,239.69,270.23z"/>
	<path class="st2" d="M297.49,167.72c1.03-6.84,1.7-13.05,2.07-19.61c0.41-7.97-0.47-15.25-1.93-23.32
		c-0.67-3.73-1.39-8.38-2.34-12.23c-0.13-0.5-0.26-0.99-0.39-1.49c-0.27-0.99-0.54-1.97-0.83-2.96c-0.01-0.04-0.03-0.09-0.04-0.13
		c-4.99-16.9-12.99-32.73-23.11-46.75C246.07,27.43,207.27,4.18,162.18,0.5c-27.95-2.28-54.74,3.27-78.21,14.8
		c-0.68,0.36-1.31,0.92-1.78,1.53c0,0-0.01,0.01-0.01,0.01c-7.51,9.54-12.86,25.15,11.51,40.17c5.27,3.25,11.1,6.27,17.27,9.21
		c21.57,10.29,47.74,20.19,68.51,35.24c1.55,1.13,1.65,3.41,0.2,4.67c-3.78,3.28-7,7.12-9.55,11.36
		c-6.34,10.54-8.55,23.53-5.14,36.36c0.33,1.24,0.71,2.46,1.13,3.65c0.68,1.93,3.52,1.63,3.75-0.4c0.97-8.58,5.51-16.41,12.46-21.53
		c3.04-2.24,5.75-3.86,9.1-4.91c3.35-1.05,5.88-1.56,9.92-0.94c4.04,0.62,6.93,2.58,9.38,6.07c8.14,11.63,15.54,25.95,14.33,40.03
		c0.02,0.93,0.01,1.85-0.03,2.78c-0.08,2.49-0.32,4.95-0.71,7.39c-1.02,6.37-3.07,12.5-6.01,18.16l-0.32-0.34
		c-11.55-13.99-27.16-23.5-44.72-27.57c-1.44-0.33-2.58,1.22-1.85,2.5c8.15,14.14,14.6,29.58,19,46.1
		c4.81,18.05,6.84,36.2,6.37,53.98c-0.04,1.48,1.72,2.3,2.82,1.31c10.95-9.85,19.07-22.46,23.52-36.42c0,0,0.82-2.24,1.28-3.29
		c4.59-10.03,10.93-17.17,16.31-22.61c6.24-6.3,8.41-5.49,13.42-6.68C277.26,205.6,293.32,192.44,297.49,167.72z"/>
	<path class="st3" d="M145.21,75.06c-11.63-1.48-22.61-6-31.85-12.93c-1.18-0.89-0.41-2.78,1.05-2.6c11.63,1.49,22.61,6,31.85,12.93
		C147.44,73.35,146.67,75.25,145.21,75.06z"/>
	<path class="st4" d="M299.56,148.11c0.41-7.97-0.47-15.25-1.93-23.32c-0.55-3.06-1.14-6.74-1.86-10.1
		c-1.79,9.58-6.08,20.59-10.97,28.9c-5.82,9.89-9.69,16.18-13.77,21.79c-2.72,3.8-3.48,7.77-1.68,12.13
		c1.53,3.69,4.89,6.4,8.85,6.87c7.64,0.92,13.05-4.77,13.31-11.2c0,0,1.24-14.73,3-21.65c0.21-0.71,0.84-1.38,1.61-1.58
		c1.18-0.31,2.57,0.25,2.89,1.43c0.11,0.51,0.17,1.15,0.19,1.74C299.35,151.46,299.46,149.8,299.56,148.11z"/>
	<path class="st4" d="M155.46,0.12c-1.11-0.04-2.22-0.08-3.32-0.1c-0.68-0.01-1.35,0-2.03,0c-0.98,0-1.97,0-2.95,0.01
		c-0.72,0.01-1.44,0.04-2.17,0.06c-0.92,0.03-1.85,0.06-2.77,0.11c-0.75,0.04-1.5,0.09-2.24,0.14c-0.89,0.06-1.77,0.12-2.65,0.19
		c-0.77,0.06-1.53,0.14-2.29,0.21c-0.85,0.08-1.71,0.18-2.56,0.27c-0.78,0.09-1.55,0.19-2.33,0.29c-0.83,0.11-1.65,0.23-2.47,0.35
		c-0.79,0.12-1.57,0.24-2.36,0.37c-0.8,0.13-1.6,0.28-2.39,0.42c-0.8,0.15-1.59,0.29-2.38,0.45c-0.77,0.15-1.54,0.32-2.31,0.49
		c-0.81,0.17-1.61,0.35-2.41,0.53c-0.74,0.17-1.47,0.36-2.21,0.54c-0.82,0.21-1.64,0.4-2.46,0.62c-0.68,0.18-1.36,0.38-2.04,0.58
		c-0.86,0.24-1.71,0.48-2.56,0.73c-0.5,0.15-0.99,0.32-1.49,0.48c-2.15,0.68-4.28,1.4-6.39,2.16c-0.29,0.11-0.59,0.2-0.88,0.31
		c-0.93,0.34-1.84,0.71-2.76,1.07c-0.55,0.22-1.1,0.42-1.65,0.65c-0.87,0.35-1.72,0.73-2.58,1.1c-0.48,0.21-0.97,0.41-1.45,0.63
		c-3.47,2.09-4.77,6.61-2.76,10.28c7.84,14.32,18.82,26.3,33.07,33.12c16.61,7.97,36.03,10.28,55.21,5.17
		c3.65-0.97,6.26-4.15,6.56-7.92c0.61-7.57,5.89-14.29,13.65-16.35c1.95-0.52,3.91-0.7,5.81-0.59c1.31,0.08,3.05,0.39,4.63,0.67
		c1.58,0.28,4.47,1.04,7.06,1.71c26.4,6.89,51.33,22.55,67.04,45.22c6.6,9.52,10.32,14.33,14.12,23.09c0,0,0-0.01,0-0.01
		c-5-16.6-12.9-32.16-22.87-45.96C246.07,27.43,207.27,4.18,162.18,0.5c-1.68-0.14-3.36-0.24-5.04-0.32
		C156.58,0.15,156.02,0.14,155.46,0.12z"/>
	<path class="st5" d="M205.93,14.76c1.47-0.39,4.18-1.15,5.63-1.57c-0.06-0.03-0.12-0.06-0.18-0.08c-0.01,0-0.01-0.01-0.02-0.01
		C196.21,6.3,179.67,1.93,162.18,0.5c-22.31-1.82-43.87,1.36-63.6,8.58C131.7,21.76,169.05,24.58,205.93,14.76z"/>
	<path class="st6" d="M211.47,201.95c-7.32-8.39-16.6-14.8-26.92-18.72c-0.97-0.37-1.78,0.82-1.1,1.61
		c7.32,8.39,16.6,14.8,26.92,18.72C211.34,203.93,212.15,202.73,211.47,201.95z"/>
	<path class="st6" d="M165.11,150.93c0.5,2.15,1.94,0.59,2.05-1.17c0.13-2.12-1.8-8.18-0.99-14.16c0.79-5.82,6.56-17.77,4.73-17.43
		C165.21,127.73,162.91,139.3,165.11,150.93z"/>
	<path class="st6" d="M80,29.35c-0.57-0.43-1.4-0.08-1.49,0.62c-1.03,8.1,2.76,17.51,17.66,26.7c1.42,0.87,2.88,1.73,4.38,2.57
		c0.77,0.43,1.66-0.35,1.33-1.16C97.19,46.41,89.52,36.62,80,29.35z"/>
</g>
</svg>
