<svg width="30" height="30" viewBox="0 0 30 30" fill="none" xmlns="http://www.w3.org/2000/svg">
<g clip-path="url(#clip0_452_3211)">
<path d="M25.6068 10.2649L25.2901 10.125C25.0262 9.9587 24.7622 9.79769 24.4746 9.64462C24.2608 9.47571 24.0444 9.31211 23.8095 9.15376C23.7329 9.10097 23.6538 9.05081 23.5746 9.00066C23.3503 8.78425 23.1127 8.57578 22.8646 8.3752C22.6957 8.17726 22.5189 7.97927 22.3368 7.79188C22.1547 7.6045 21.9594 7.42503 21.7614 7.26404C21.5609 7.00012 21.3497 6.75471 21.128 6.51718C20.9512 6.23479 20.7665 5.96821 20.5738 5.71221C20.5289 5.62247 20.4841 5.5301 20.4366 5.44829C20.3046 5.20548 20.1726 4.97847 20.0328 4.75678C19.9984 4.66969 19.9615 4.58259 19.9246 4.49286C18.6709 1.62139 16.9686 0.0325794 15.1344 0.00618727C13.3001 -0.0202049 11.5688 1.54752 10.2624 4.3926C10.2175 4.49289 10.1726 4.59579 10.1304 4.69608C9.95886 4.96 9.79523 5.24245 9.63688 5.53276C9.4706 5.7439 9.30697 5.96031 9.15126 6.18992C9.10375 6.25854 9.06153 6.32975 9.01402 6.39837C8.83983 6.58047 8.67092 6.76525 8.50465 6.96319L8.35421 7.15321C8.16155 7.31684 7.97153 7.48574 7.78942 7.6652C7.60731 7.84467 7.43577 8.02944 7.26158 8.21947L7.06627 8.36728C6.8525 8.53883 6.65192 8.71829 6.45662 8.89512C6.19269 9.05875 5.94197 9.23294 5.70444 9.42296L5.41676 9.56807C5.17659 9.70003 4.94698 9.832 4.72529 9.97188L4.46137 10.0801C1.59253 11.3338 0.00108533 13.036 -0.0253069 14.8703C-0.0516991 16.7045 1.516 18.4359 4.36371 19.7423L4.67778 19.8795C4.9417 20.0484 5.20563 20.2068 5.49594 20.3625C5.70708 20.5288 5.92613 20.695 6.15838 20.8534C6.23492 20.9062 6.3141 20.9563 6.39327 21.0065C6.62553 21.2282 6.87097 21.4419 7.12698 21.6451C7.45119 22.0335 7.80408 22.397 8.18267 22.7325C8.38852 22.9964 8.60758 23.2603 8.83191 23.5032C9.00874 23.7829 9.19349 24.0521 9.38615 24.3081L9.52603 24.5721C9.65535 24.8122 9.78995 25.0419 9.92719 25.2609C9.96414 25.348 9.99845 25.4377 10.0354 25.5248C11.2917 28.3937 12.9913 29.9851 14.8282 30.0115H14.8573C16.681 30.0115 18.3991 28.4543 19.7002 25.6225C19.7477 25.5195 19.7926 25.4113 19.8375 25.3058C20.0037 25.0418 20.1647 24.7779 20.3178 24.4902C20.4867 24.2791 20.6503 24.06 20.8087 23.8278C20.8562 23.7592 20.9011 23.6879 20.9459 23.6167C21.1201 23.4372 21.2917 23.2524 21.4553 23.0545C21.5081 22.9912 21.5556 22.9278 21.6057 22.8645C21.7984 22.7009 21.9884 22.532 22.1705 22.3525C22.3526 22.173 22.5374 21.9724 22.7116 21.7771C22.9755 21.5739 23.2209 21.3628 23.4585 21.1437C23.7382 20.9669 24.0074 20.7821 24.2634 20.5894L24.5274 20.4496C24.7702 20.3203 24.9971 20.1857 25.2188 20.0485L25.4827 19.9402C28.3542 18.6839 29.943 16.9843 29.9694 15.1474C29.9958 13.3105 28.4519 11.5713 25.6068 10.2649ZM27.1507 15.1104C27.1323 16.9579 26.1716 18.6708 24.5722 20.022L24.4825 20.0563C25.626 18.6553 26.2655 16.9107 26.2983 15.1026C26.2988 13.2945 25.6919 11.5387 24.5749 10.117L24.6725 10.154C26.293 11.5792 27.1666 13.3026 27.1507 15.1104V15.1104ZM2.84089 14.8888C2.85672 13.0413 3.82003 11.3284 5.41676 9.97716L5.4933 9.94817C4.35533 11.3491 3.72139 13.092 3.69335 14.8967C3.69197 16.7049 4.29901 18.4609 5.41676 19.8822L5.31911 19.8426C3.69599 18.4201 2.82241 16.694 2.84089 14.8888ZM23.3186 9.39919L23.0336 9.31472C23.0177 9.28568 23.0045 9.25405 22.9887 9.22238L23.2816 9.34906L23.3186 9.39919ZM15.0499 24.0126H14.9259C13.0114 24.003 11.1229 23.5685 9.39671 22.7404L9.30961 22.4053C11.1183 23.0304 13.0175 23.3531 14.9311 23.3606H15.1027C16.9609 23.3684 18.8082 23.077 20.5738 22.4976L20.4788 22.8381C18.7714 23.619 16.9142 24.0181 15.0367 24.0073L15.0499 24.0126ZM20.3785 23.1759C20.3415 23.2999 20.302 23.4214 20.2624 23.5428C18.6588 24.5367 16.8044 25.0514 14.918 25.026C13.03 25.014 11.1845 24.4648 9.59729 23.4425C9.56034 23.3237 9.52339 23.205 9.48908 23.0836C11.1947 23.8649 13.0472 24.2742 14.9232 24.2844H15.0499C16.8798 24.2861 18.69 23.9068 20.3653 23.1706L20.3785 23.1759ZM15.1001 23.0993H14.9311C12.9892 23.0919 11.0626 22.7555 9.23307 22.1044C9.20668 21.9961 9.18293 21.8853 9.15654 21.7771C11.0432 22.2748 12.9852 22.532 14.9364 22.5425H15.1687C17.042 22.5504 18.9093 22.3306 20.7295 21.888L20.6503 22.1994C18.8592 22.804 16.9799 23.1063 15.0895 23.0941L15.1001 23.0993ZM5.99739 14.9178C6.00466 13.0036 6.43737 11.115 7.26422 9.38862L7.60468 9.30151C6.9785 11.1099 6.65568 13.0094 6.64928 14.9231C6.62294 16.8377 6.91366 18.7434 7.50966 20.5631L7.1692 20.4681C6.36817 18.7286 5.96429 16.8327 5.98683 14.9178H5.99739ZM6.83402 20.3704L6.47773 20.2569C5.48288 18.6513 4.96482 16.796 4.98393 14.9073C4.99593 13.0202 5.54521 11.1755 6.56746 9.5892L6.9264 9.48366C6.14868 11.1893 5.74207 13.0406 5.73347 14.9151C5.7076 16.7901 6.07908 18.6494 6.82347 20.3704H6.83402ZM14.9602 5.99198H15.0869C17.0014 6.00151 18.8899 6.43595 20.616 7.26404L20.7031 7.59922C18.8946 6.97323 16.9953 6.64958 15.0816 6.64122C13.1658 6.61869 11.2593 6.91207 9.43893 7.50953C9.4706 7.39077 9.50491 7.27198 9.53922 7.15585C11.237 6.38027 13.0831 5.98315 14.9496 5.99198H14.9602ZM9.63688 6.82067C9.67382 6.69926 9.71341 6.58053 9.75036 6.46177C11.3287 5.48749 13.1476 4.97287 15.0024 4.97586H15.0974C16.9841 4.99076 18.8279 5.53979 20.4154 6.55939C20.4524 6.68079 20.4893 6.80217 20.5237 6.92621C18.818 6.14508 16.9655 5.73666 15.0895 5.72806C13.2116 5.70109 11.3494 6.0735 9.62632 6.82067H9.63688ZM14.9153 6.90514H15.0842C17.0265 6.91166 18.9534 7.24904 20.7823 7.90277C20.8087 8.01098 20.8351 8.11919 20.8588 8.23003C18.9722 7.732 17.0302 7.47479 15.0789 7.46462C13.1291 7.43489 11.1834 7.65305 9.2885 8.11386C9.31489 8.01093 9.34128 7.90802 9.36504 7.80509C11.1478 7.20285 13.0177 6.8988 14.8995 6.90514H14.9153ZM21.5134 8.91883L21.2494 8.86078C21.2336 8.77368 21.2151 8.68395 21.1993 8.59686L21.4474 8.67076C21.4711 8.75258 21.4896 8.83702 21.5107 8.91883H21.5134ZM21.7456 8.7658L22.0095 8.85285C22.0359 8.91883 22.0597 8.98746 22.0861 9.05344L21.8063 8.98746C21.7826 8.91356 21.7641 8.8397 21.7351 8.7658H21.7456ZM14.9364 21.5396C12.933 21.5277 10.9355 21.3217 8.97179 20.9246C8.25977 16.973 8.29648 12.9229 9.08 8.98481C10.9492 8.64172 12.846 8.47211 14.7464 8.4781H15.0552C17.0587 8.49101 19.0562 8.69786 21.0198 9.0957C21.3804 11.0656 21.5501 13.0657 21.5266 15.0682C21.5138 17.0726 21.3069 19.071 20.909 21.0355C18.9395 21.3991 16.939 21.5679 14.9364 21.5396V21.5396ZM20.8509 21.3126C20.8298 21.4102 20.8087 21.5079 20.7849 21.6056C18.8702 22.0829 16.9016 22.31 14.9285 22.2812C12.9548 22.2701 10.9908 22.004 9.08528 21.4895C9.06416 21.3918 9.04305 21.2968 9.02458 21.1991C10.9706 21.5881 12.9493 21.7905 14.9338 21.8035H15.2452C17.1251 21.8068 19.0014 21.6389 20.8509 21.3021V21.3126ZM8.69204 20.8666L8.40172 20.8006C7.46126 16.9519 7.49846 12.929 8.50993 9.09835L8.80024 9.04023C8.03779 12.9422 8.00111 16.9513 8.69204 20.8666V20.8666ZM9.13806 8.70511C9.15918 8.60745 9.18293 8.51242 9.20404 8.41476C11.0445 7.95753 12.9345 7.73056 14.8309 7.73911H15.0605C17.0342 7.75003 18.9982 8.01616 20.9037 8.53088C20.9248 8.62589 20.9459 8.72356 20.9644 8.81857C19.0189 8.43281 17.0412 8.23221 15.0578 8.21947C13.0739 8.18888 11.0917 8.34797 9.13806 8.69454V8.70511ZM21.7905 15.0709C21.8149 13.0811 21.6497 11.0936 21.2969 9.13527L21.5873 9.20125C22.0639 11.1188 22.291 13.0899 22.2629 15.0656C22.2518 17.0402 21.9857 19.0051 21.4711 20.9115L21.1808 20.9722C21.5715 19.0254 21.7756 17.0458 21.7905 15.0603V15.0709ZM21.1307 8.31972L21.0673 8.02945L21.2679 8.106L21.355 8.38571L21.1307 8.31972ZM8.99027 8.20097L8.76857 8.25903C8.7976 8.17193 8.824 8.08484 8.85303 7.99511L9.05361 7.91856L8.99027 8.20097ZM8.92165 8.49395C8.90053 8.58105 8.88206 8.67078 8.86358 8.75788L8.59966 8.81065L8.67092 8.55994L8.92165 8.49395ZM8.31199 8.87134L8.01903 8.93468L8.09821 8.73674L8.36213 8.64963L8.31199 8.87134ZM7.7076 9.01123L7.41729 9.0825C7.44368 9.03763 7.46744 8.99012 7.49119 8.94525L7.77095 8.84757L7.7076 9.01123ZM6.91584 14.9363C6.92257 12.9932 7.25993 11.0654 7.91346 9.23553L8.23809 9.16168C7.74042 11.0484 7.48325 12.9904 7.47271 14.9415C7.44762 16.8913 7.66662 18.8366 8.1246 20.732L7.81317 20.6528C7.18686 18.8093 6.87895 16.8726 6.90264 14.9257L6.91584 14.9363ZM8.20114 21.0065C8.21961 21.0804 8.24073 21.1543 8.2592 21.2282L7.99528 21.1437C7.96889 21.0777 7.94513 21.0091 7.92138 20.9431L8.20114 21.0065ZM8.49145 21.0751L8.75538 21.1331C8.77385 21.2229 8.78969 21.31 8.80816 21.3971L8.55743 21.3258C8.52312 21.2466 8.50201 21.1622 8.47826 21.0777L8.49145 21.0751ZM8.8715 21.6848L8.93484 21.9777L8.73426 21.8986C8.70523 21.8062 8.67884 21.7138 8.64981 21.6346L8.8715 21.6848ZM21.0119 21.8035L21.2336 21.7455L21.1465 22.0094L20.9459 22.0859C20.9644 21.9936 20.9855 21.8985 21.0066 21.8035H21.0119ZM21.0805 21.5158C21.099 21.4261 21.1175 21.3363 21.1386 21.2519L21.4025 21.1991C21.3788 21.2836 21.355 21.368 21.3286 21.463L21.0805 21.5158ZM21.6902 21.1331L21.9805 21.0672C21.9541 21.1358 21.9304 21.2044 21.9013 21.2704L21.6242 21.3575L21.6902 21.1331ZM21.7694 20.8481C22.2643 18.9611 22.5188 17.0191 22.5268 15.0682C22.5535 13.1184 22.3345 11.1729 21.8749 9.27779L22.1864 9.35434C22.8092 11.1957 23.1135 13.1298 23.0863 15.0735C23.0796 17.0166 22.7422 18.9444 22.0887 20.7742L21.7694 20.8481ZM23.3529 15.0735C23.3784 13.1579 23.0868 11.2513 22.4899 9.43089L22.8303 9.52851C23.6266 11.2664 24.0268 13.1594 24.0021 15.0709C23.9945 16.9847 23.5627 18.873 22.738 20.6L22.3949 20.6898C23.0195 18.8837 23.3432 16.9872 23.3529 15.0761V15.0735ZM24.2661 15.0735C24.2912 13.1975 23.916 11.3378 23.1655 9.61826L23.5324 9.73437C24.5227 11.3397 25.0379 13.1927 25.0182 15.0788C25.0041 16.9664 24.4551 18.8113 23.4347 20.3994L23.0731 20.5077C23.8491 18.8043 24.2557 16.9559 24.2661 15.0841V15.0735ZM22.6825 9.20125L22.3949 9.1247L22.3315 8.95582L22.6113 9.05872L22.6825 9.20125ZM22.2128 8.6417C22.1916 8.58628 22.1679 8.53353 22.1468 8.4781L22.3474 8.57836L22.4265 8.71825L22.2128 8.6417ZM21.8855 8.53088L21.6612 8.45697C21.64 8.37779 21.6163 8.30128 21.5925 8.22211L21.7931 8.30922L21.8855 8.53088ZM21.4711 7.90013C21.45 7.83151 21.4263 7.76288 21.4025 7.69426L21.5239 7.76817C21.5556 7.83151 21.5846 7.89749 21.6163 7.96083L21.4711 7.90013ZM21.1492 7.77081L20.9829 7.70483C20.9591 7.61246 20.938 7.51743 20.9143 7.42242L21.0541 7.49896L21.1492 7.77081ZM20.8219 7.0793L20.7427 6.79167L20.7929 6.82859C20.8324 6.92624 20.8747 7.02386 20.9143 7.12415L20.8219 7.0793ZM15.0816 4.70401C13.2489 4.68368 11.4446 5.15777 9.85857 6.07639C9.87968 6.01305 9.90344 5.95236 9.92719 5.88901C11.3563 4.64347 13.1885 3.95804 15.0842 3.95973C16.9815 3.99837 18.8013 4.71995 20.2096 5.99198L20.2729 6.17143C18.7061 5.23157 16.9165 4.72767 15.0895 4.71193L15.0816 4.70401ZM9.38351 6.68078C9.35448 6.77315 9.32809 6.86554 9.30169 6.95791L9.20932 7.00276C9.24891 6.90511 9.29114 6.81278 9.33073 6.71777L9.38351 6.68078ZM9.2014 7.30102C9.17237 7.40131 9.14862 7.50157 9.12223 7.60186L8.95332 7.6652L9.06153 7.37229L9.2014 7.30102ZM8.63661 7.78396L8.47562 7.85258C8.50993 7.77868 8.54424 7.70747 8.58119 7.63621L8.71843 7.55966C8.69731 7.64148 8.67092 7.71534 8.64453 7.79188L8.63661 7.78396ZM8.5284 8.106L8.4545 8.32765L8.22225 8.39891C8.25128 8.33293 8.27768 8.26431 8.30935 8.20097L8.5284 8.106ZM7.88707 8.50452L7.67593 8.57572L7.74719 8.45697L7.95041 8.36199L7.88707 8.50452ZM7.29325 8.71561C7.25018 8.72912 7.20789 8.74502 7.16656 8.76316L7.30908 8.68397L7.29325 8.71561ZM7.05836 9.15904L6.78124 9.23553L6.81819 9.1854L7.10586 9.06664L7.05836 9.15904ZM4.70153 14.8967C4.68175 16.7297 5.15678 18.5341 6.07657 20.1197L5.88654 20.0537C4.64026 18.6224 3.9524 16.7893 3.94936 14.8914C3.98241 12.9957 4.70052 11.176 5.971 9.76865L6.16102 9.70267C5.2192 11.275 4.71781 13.0718 4.70945 14.9046L4.70153 14.8967ZM6.68623 20.5974L6.96334 20.6792C6.97582 20.7107 6.98992 20.7416 7.00557 20.7716L6.72318 20.6528C6.7179 20.6422 6.7047 20.6238 6.69151 20.6053L6.68623 20.5974ZM7.3038 20.7795L7.59148 20.856L7.65482 21.0223C7.56245 20.988 7.46744 20.9563 7.3909 20.9194L7.3038 20.7795ZM7.77359 21.339C7.79734 21.3944 7.81845 21.4472 7.84221 21.5L7.64162 21.4023L7.56245 21.2625L7.77359 21.339ZM8.10349 21.4498L8.32518 21.5237L8.39644 21.756L8.19322 21.6689C8.17211 21.6056 8.14044 21.5396 8.11141 21.4578L8.10349 21.4498ZM8.50201 22.0912C8.52576 22.1598 8.54688 22.2285 8.57063 22.2944L8.44923 22.2232C8.41756 22.1598 8.38852 22.0939 8.35685 22.0279L8.50201 22.0912ZM8.824 22.2205L8.99027 22.2839C9.01402 22.3789 9.03513 22.4738 9.06153 22.5662L8.91901 22.4924L8.824 22.2205ZM9.1539 22.912C9.17765 23.0043 9.20404 23.0967 9.23044 23.1891L9.17765 23.1522C9.13806 23.0572 9.09847 22.9621 9.06153 22.8671L9.1539 22.912ZM14.8942 25.2873H14.9892C16.7913 25.2896 18.562 24.8162 20.1225 23.9149L20.0539 24.1023C18.6222 25.3446 16.7898 26.0279 14.8942 26.0263C12.9965 25.9895 11.1761 25.2677 9.76884 23.9941C9.74772 23.9307 9.72397 23.87 9.70549 23.8067C11.2735 24.7572 13.0686 25.2677 14.9021 25.2846L14.8942 25.2873ZM20.5923 23.3131C20.6213 23.2181 20.6477 23.1205 20.6767 23.0254L20.7691 22.9806C20.7295 23.0809 20.6846 23.1786 20.6424 23.2789L20.5923 23.3131ZM20.7744 22.685C20.8008 22.59 20.8272 22.4923 20.8509 22.3947L21.0198 22.334L20.9169 22.6111L20.7744 22.685ZM21.3365 22.2126L21.4949 22.1493C21.4632 22.2152 21.4315 22.2812 21.3972 22.3472L21.2574 22.429L21.3365 22.2126ZM21.4447 21.8853C21.4711 21.8141 21.4949 21.7402 21.5186 21.6636C21.5978 21.6425 21.6744 21.6161 21.7535 21.5924L21.6664 21.7929L21.4447 21.8853ZM22.0861 21.4868L22.2972 21.4156L22.2286 21.5343L22.0254 21.6293C22.0518 21.5792 22.0755 21.5396 22.094 21.4842L22.0861 21.4868ZM22.2154 21.1648L22.2814 20.9985L22.569 20.9273L22.4952 21.0672L22.2154 21.1648ZM22.9174 20.8323L23.1945 20.7558C23.1814 20.7727 23.169 20.7903 23.1576 20.8085L22.8673 20.9273L22.9174 20.8323ZM25.2742 15.0946C25.2942 13.2647 24.823 11.4628 23.9098 9.8769L24.0866 9.94024C25.3338 11.3712 26.0227 13.2043 26.0264 15.1026C25.9871 16.9964 25.2676 18.8129 23.9995 20.22L23.8227 20.2807C24.7633 18.7123 25.2672 16.9208 25.2822 15.092L25.2742 15.0946ZM22.9729 8.94789L22.7907 8.87134L22.7644 8.81857L22.9702 8.94261L22.9729 8.94789ZM22.0782 8.17198L21.9779 8.12443L21.933 8.02945L22.0254 8.09015L22.0782 8.17198ZM21.2679 7.31687L21.2151 7.18227C21.2442 7.23505 21.2758 7.28516 21.3022 7.3353L21.2679 7.31687ZM20.0433 5.51427C18.6425 4.37039 16.8977 3.73081 15.0895 3.69845H15.0182C13.2375 3.71069 11.5111 4.31308 10.1093 5.4113C10.1191 5.38252 10.1306 5.35437 10.1436 5.32689C11.5529 3.71961 13.2605 2.84599 15.0473 2.84599H15.0974C16.9449 2.86446 18.6577 3.82514 20.009 5.42187C20.0275 5.44034 20.0407 5.47995 20.0512 5.51162L20.0433 5.51427ZM8.9322 7.01597L8.86094 7.19013L8.81344 7.21391C8.85039 7.14793 8.88998 7.08195 8.92956 7.01861L8.9322 7.01597ZM8.16155 7.90277L8.10613 8.01624L8.0032 8.06637L8.07182 7.96083L8.16155 7.90277ZM7.01085 21.0592L7.18504 21.1305C7.18504 21.1463 7.20088 21.1648 7.21143 21.1833L7.01613 21.0672L7.01085 21.0592ZM7.89763 21.8299L7.99528 21.8801C8.0118 21.911 8.02678 21.9426 8.04015 21.975L7.94777 21.9143L7.89763 21.8299ZM8.70787 22.6877L8.75802 22.8223L8.67092 22.6665L8.70787 22.6877ZM9.92983 24.4902C11.335 25.6299 13.0825 26.2639 14.8916 26.2902H14.9628C16.7474 26.2852 18.4798 25.6874 19.8876 24.5905C19.8876 24.6196 19.8638 24.6459 19.8533 24.675C18.4413 26.2822 16.7364 27.1559 14.947 27.1559H14.8731C13.0256 27.14 11.3154 26.1793 9.9615 24.5826C9.9615 24.5483 9.95094 24.5192 9.93775 24.4876L9.92983 24.4902ZM21.0409 22.9885C21.0647 22.9278 21.0911 22.8671 21.1148 22.8038L21.1676 22.7774C21.128 22.8486 21.0858 22.9173 21.0436 22.9859L21.0409 22.9885ZM21.8169 22.0912L21.8644 21.9909L21.9673 21.946C21.9462 21.9751 21.9304 22.0041 21.9092 22.0332L21.8169 22.0912ZM22.6825 21.2783L22.8119 21.2282L22.6641 21.3099C22.6741 21.2995 22.6829 21.288 22.6905 21.2757L22.6825 21.2783ZM15.1001 2.58207H15.0473C13.4189 2.58207 11.8617 3.27089 10.5184 4.55091C11.7746 2.71666 13.3582 1.61878 15.071 1.61878H15.108C16.7971 1.61878 18.3938 2.70879 19.6712 4.67237C18.3727 3.36596 16.8024 2.59526 15.108 2.57943L15.1001 2.58207ZM4.66459 10.315C3.34498 11.6214 2.58224 13.1918 2.56904 14.8888C2.55321 16.5356 3.24205 18.1139 4.53526 19.4704C2.68781 18.2036 1.58726 16.6069 1.60309 14.8809C1.61893 13.1548 2.70364 11.5897 4.6725 10.3123L4.66459 10.315ZM14.8731 27.4171H14.9259C16.5543 27.4171 18.114 26.7283 19.4548 25.4483C18.1985 27.2825 16.615 28.3804 14.9021 28.3804H14.8731C13.184 28.3646 11.5899 27.2878 10.3125 25.3269C11.6189 26.6333 13.1893 27.4039 14.8731 27.4171ZM25.327 19.6921C26.6308 18.3857 27.3988 16.8154 27.4147 15.1236C27.4279 13.4768 26.7417 11.8985 25.4458 10.542C27.2933 11.8062 28.3938 13.4055 28.378 15.1316C28.3621 16.8576 27.2774 18.4042 25.327 19.6921ZM15.1027 0.275393H15.1291C16.6282 0.288589 18.0322 1.44984 19.1829 3.56913C17.9926 2.14659 16.5939 1.37598 15.1185 1.36278C13.6036 1.34431 12.1864 2.15454 10.9908 3.53749C12.1652 1.41292 13.6036 0.264826 15.1027 0.264826V0.275393ZM0.259727 14.8756C0.272923 13.3765 1.43418 11.9724 3.55347 10.8217C2.13357 12.012 1.36028 13.4108 1.34709 14.8861C1.34709 16.4037 2.13885 17.8236 3.53236 19.0191C1.41307 17.8262 0.246531 16.3773 0.259727 14.865V14.8756ZM14.8889 29.7449H14.8731C13.3766 29.7317 11.9699 28.5705 10.8192 26.4512C12.0122 27.8711 13.411 28.6444 14.8836 28.6576H14.9232C16.4249 28.6576 17.8264 27.8658 19.0193 26.4696C17.829 28.581 16.3906 29.7344 14.8889 29.7344V29.7449ZM26.4355 19.1881C27.858 17.9951 28.6287 16.5963 28.6419 15.1236C28.6577 13.6061 27.8501 12.1862 26.4566 10.988C28.5917 12.173 29.7451 13.6272 29.7293 15.1316C29.7134 16.6359 28.5574 18.0479 26.4355 19.1881V19.1881Z" fill="#EA3F27"/>
</g>
<defs>
<clipPath id="clip0_452_3211">
<rect width="30" height="30" fill="white"/>
</clipPath>
</defs>
</svg>
