<svg width="64" height="64" viewBox="0 0 64 64" fill="none" xmlns="http://www.w3.org/2000/svg">
<path d="M32 28.9917C45.886 28.9917 57.1428 26.0931 57.1428 22.5175C57.1428 18.9418 45.886 16.0432 32 16.0432C18.114 16.0432 6.85712 18.9418 6.85712 22.5175C6.85712 26.0931 18.114 28.9917 32 28.9917Z" fill="white"/>
<path d="M42.4545 29.0604C42.4545 29.0604 43.9939 27.063 45.4049 24.9279C45.4049 22.7928 35.5274 22.104 31.8073 22.104C28.0871 22.104 18.2096 22.7928 18.2096 24.9279C19.6207 27.063 21.16 29.0604 21.16 29.0604H42.4545Z" fill="#B4B4B4"/>
<path d="M42.4548 29.0606C42.4548 30.4381 37.7084 31.9533 31.8076 31.9533C25.9067 31.9533 21.1603 30.4381 21.1603 29.0606C21.1603 27.6831 25.9067 26.5811 31.8076 26.5811C37.7084 26.5811 42.4548 27.6831 42.4548 29.0606Z" fill="#333333"/>
<path d="M31.8075 31.609C36.0583 31.609 39.5042 30.8381 39.5042 29.8872C39.5042 28.9362 36.0583 28.1653 31.8075 28.1653C27.5566 28.1653 24.1107 28.9362 24.1107 29.8872C24.1107 30.8381 27.5566 31.609 31.8075 31.609Z" fill="#57FFB3"/>
<path d="M31.9999 15.3543C35.4634 15.3543 38.9911 15.561 42.3264 15.9053C40.4663 13.2881 36.5538 11.4285 31.9999 11.4285C27.4459 11.4285 23.5334 13.2881 21.6733 15.9053C25.0086 15.4921 28.5363 15.3543 31.9999 15.3543Z" fill="#B4B4B4"/>
<path d="M44.5714 50.8044L38.4643 30.3563C38.4643 29.3747 36.1788 28.5715 32 28.5715C27.8213 28.5715 25.5357 29.3747 25.5357 30.3563L19.4286 50.8044L32 63.4287L44.5714 50.8044Z" fill="url(#paint0_linear)"/>
<path fill-rule="evenodd" clip-rule="evenodd" d="M32 0.0922852L47.0416 15.1339C47.3317 15.424 47.3317 15.8944 47.0416 16.1845C46.7515 16.4746 46.2812 16.4746 45.9911 16.1845L32 2.1934L18.0089 16.1845C17.7188 16.4746 17.2484 16.4746 16.9583 16.1845C16.6682 15.8944 16.6682 15.424 16.9583 15.1339L32 0.0922852ZM7.17833 25.9645C7.46843 26.2546 7.46843 26.725 7.17833 27.0151L2.1934 32L32 61.8066L61.8066 32L56.8217 27.0151C56.5315 26.725 56.5315 26.2546 56.8217 25.9645C57.1118 25.6744 57.5821 25.6744 57.8722 25.9645L63.9077 32L32 63.9077L0.0922852 32L6.12777 25.9645C6.41787 25.6744 6.88822 25.6744 7.17833 25.9645Z" fill="white"/>
<defs>
<linearGradient id="paint0_linear" x1="19.4286" y1="37.2188" x2="47.2396" y2="41.4445" gradientUnits="userSpaceOnUse">
<stop stop-color="#C728FF"/>
<stop offset="1" stop-color="#7140FF"/>
</linearGradient>
</defs>
</svg>
